<?xml version="1.0" standalone="no"?>
<!DOCTYPE svg PUBLIC "-//W3C//DTD SVG 20010904//EN"
 "http://www.w3.org/TR/2001/REC-SVG-20010904/DTD/svg10.dtd">
<svg version="1.0" xmlns="http://www.w3.org/2000/svg"
 width="200.000000pt" height="200.000000pt" viewBox="0 0 200.000000 200.000000"
 preserveAspectRatio="xMidYMid meet">

<g transform="translate(0.000000,200.000000) scale(0.100000,-0.100000)"
fill="#000000" stroke="none">
<path d="M881 1694 c-124 -33 -236 -129 -294 -251 -30 -65 -32 -74 -32 -188 0
-114 2 -123 32 -188 33 -69 129 -181 165 -193 29 -9 19 -13 -70 -29 -261 -46
-416 -166 -467 -362 -21 -80 -20 -182 1 -190 35 -13 49 11 56 96 17 206 144
330 393 383 86 19 132 22 335 22 202 0 249 -3 334 -22 251 -54 372 -170 396
-381 10 -93 14 -101 40 -101 27 0 33 16 31 82 -5 130 -51 236 -141 322 -83 79
-203 133 -340 151 -82 11 -85 16 -36 55 124 99 191 268 167 420 -21 131 -119
273 -229 333 -101 55 -232 71 -341 41z m280 -91 c156 -73 249 -244 220 -407
-23 -129 -103 -234 -221 -290 -58 -28 -75 -31 -160 -31 -82 0 -103 4 -153 27
-74 35 -157 114 -190 182 -74 150 -41 334 81 448 87 82 161 109 283 104 59 -2
89 -9 140 -33z"/>
</g>
</svg>
